<svg width="37" height="38" viewBox="0 0 37 38" fill="none" xmlns="http://www.w3.org/2000/svg">
<path d="M18.5 0.847656C13.4796 0.847656 12.8483 0.870781 10.8757 0.958656C8.90312 1.05116 7.55956 1.36103 6.3825 1.81891C5.14726 2.28216 4.0287 3.01077 3.10569 3.95334C2.16311 4.87636 1.4345 5.99492 0.97125 7.23016C0.513375 8.40491 0.201188 9.75078 0.111 11.7164C0.023125 13.6936 0 14.3226 0 19.35C0 24.3727 0.023125 25.0017 0.111 26.9743C0.2035 28.9445 0.513375 30.2881 0.97125 31.4652C1.44531 32.6815 2.07663 33.7129 3.10569 34.742C4.13244 35.771 5.16381 36.4047 6.38019 36.8764C7.55956 37.3343 8.90081 37.6465 10.8711 37.7367C12.8459 37.8245 13.4749 37.8477 18.5 37.8477C23.5251 37.8477 24.1518 37.8245 26.1266 37.7367C28.0946 37.6442 29.4428 37.3343 30.6198 36.8764C31.8542 36.4129 32.972 35.6843 33.8943 34.742C34.9234 33.7129 35.5547 32.6815 36.0288 31.4652C36.4843 30.2881 36.7965 28.9445 36.889 26.9743C36.9769 25.0017 37 24.3727 37 19.3477C37 14.3226 36.9769 13.6936 36.889 11.7187C36.7965 9.75078 36.4843 8.40491 36.0288 7.23016C35.5655 5.99492 34.8369 4.87636 33.8943 3.95334C32.9713 3.01077 31.8527 2.28216 30.6175 1.81891C29.4381 1.36103 28.0922 1.04884 26.1243 0.958656C24.1494 0.870781 23.5228 0.847656 18.4954 0.847656H18.5ZM16.8419 4.18228H18.5023C23.4418 4.18228 24.0269 4.19847 25.9763 4.28866C27.7801 4.36959 28.7606 4.67253 29.4127 4.92459C30.2752 5.25991 30.8927 5.66228 31.5402 6.30978C32.1877 6.95728 32.5877 7.57241 32.9231 8.43728C33.1774 9.08709 33.4781 10.0676 33.559 11.8713C33.6492 13.8208 33.6677 14.4058 33.6677 19.343C33.6677 24.2802 33.6492 24.8676 33.559 26.817C33.4781 28.6208 33.1751 29.599 32.9231 30.2511C32.6244 31.0533 32.1512 31.7792 31.5379 32.3763C30.8904 33.0238 30.2753 33.4238 29.4104 33.7592C28.7629 34.0135 27.7824 34.3142 25.9763 34.3974C24.0269 34.4853 23.4418 34.5061 18.5023 34.5061C13.5628 34.5061 12.9754 34.4853 11.026 34.3974C9.22225 34.3142 8.24406 34.0135 7.59194 33.7592C6.78911 33.4614 6.06245 32.9891 5.46444 32.3763C4.84995 31.7787 4.37601 31.052 4.07694 30.2488C3.82488 29.599 3.52194 28.6185 3.441 26.8147C3.35313 24.8653 3.33463 24.2802 3.33463 19.3384C3.33463 14.3966 3.35313 13.8162 3.441 11.8667C3.52425 10.063 3.82488 9.08247 4.07925 8.43034C4.41456 7.56778 4.81694 6.95034 5.46444 6.30284C6.11194 5.65534 6.72706 5.25528 7.59194 4.91997C8.24406 4.66559 9.22225 4.36497 11.026 4.28172C12.7326 4.20309 13.394 4.17997 16.8419 4.17766V4.18228ZM28.3767 7.25328C28.0852 7.25328 27.7965 7.3107 27.5271 7.42227C27.2578 7.53383 27.0131 7.69736 26.8069 7.9035C26.6008 8.10965 26.4372 8.35438 26.3257 8.62372C26.2141 8.89307 26.1567 9.18175 26.1567 9.47328C26.1567 9.76482 26.2141 10.0535 26.3257 10.3228C26.4372 10.5922 26.6008 10.8369 26.8069 11.0431C27.0131 11.2492 27.2578 11.4127 27.5271 11.5243C27.7965 11.6359 28.0852 11.6933 28.3767 11.6933C28.9655 11.6933 29.5301 11.4594 29.9465 11.0431C30.3628 10.6267 30.5967 10.0621 30.5967 9.47328C30.5967 8.8845 30.3628 8.31984 29.9465 7.9035C29.5301 7.48717 28.9655 7.25328 28.3767 7.25328ZM18.5023 9.84791C17.2422 9.82825 15.9907 10.0595 14.8208 10.5281C13.6508 10.9967 12.5858 11.6934 11.6877 12.5776C10.7896 13.4618 10.0764 14.5158 9.58957 15.6783C9.10274 16.8408 8.85202 18.0885 8.85202 19.3488C8.85202 20.6091 9.10274 21.8568 9.58957 23.0193C10.0764 24.1818 10.7896 25.2358 11.6877 26.12C12.5858 27.0042 13.6508 27.7009 14.8208 28.1695C15.9907 28.6382 17.2422 28.8694 18.5023 28.8497C20.9964 28.8108 23.3752 27.7927 25.1253 26.0152C26.8753 24.2376 27.8561 21.8432 27.8561 19.3488C27.8561 16.8544 26.8753 14.46 25.1253 12.6825C23.3752 10.9049 20.9964 9.88682 18.5023 9.84791ZM18.5023 13.1802C19.3122 13.1802 20.1142 13.3397 20.8625 13.6497C21.6108 13.9596 22.2907 14.4139 22.8633 14.9866C23.4361 15.5593 23.8903 16.2392 24.2003 16.9875C24.5102 17.7357 24.6698 18.5377 24.6698 19.3477C24.6698 20.1576 24.5102 20.9596 24.2003 21.7078C23.8903 22.4561 23.4361 23.136 22.8633 23.7087C22.2907 24.2814 21.6108 24.7357 20.8625 25.0456C20.1142 25.3556 19.3122 25.5151 18.5023 25.5151C16.8666 25.5151 15.2979 24.8653 14.1413 23.7087C12.9847 22.5521 12.3349 20.9834 12.3349 19.3477C12.3349 17.712 12.9847 16.1432 14.1413 14.9866C15.2979 13.83 16.8666 13.1802 18.5023 13.1802Z" fill="white"/>
</svg>
