<svg width="53" height="46" viewBox="0 0 53 46" fill="none" xmlns="http://www.w3.org/2000/svg">
<g filter="url(#filter0_d_106_36)">
<path d="M36.25 6.84766H16.75C10.9 6.84766 7 10.8782 7 16.924V29.0155C7 35.0613 10.9 39.0918 16.75 39.0918H36.25C42.1 39.0918 46 35.0613 46 29.0155V16.924C46 10.8782 42.1 6.84766 36.25 6.84766ZM30.1855 25.0454L25.369 28.028C23.419 29.2372 21.82 28.3102 21.82 25.9523V19.967C21.82 17.6092 23.419 16.6821 25.369 17.8913L30.1855 20.8739C32.038 22.0427 32.038 23.8967 30.1855 25.0454Z" fill="white"/>
</g>
<defs>
<filter id="filter0_d_106_36" x="0.551555" y="0.399211" width="51.8969" height="45.141" filterUnits="userSpaceOnUse" color-interpolation-filters="sRGB">
<feFlood flood-opacity="0" result="BackgroundImageFix"/>
<feColorMatrix in="SourceAlpha" type="matrix" values="0 0 0 0 0 0 0 0 0 0 0 0 0 0 0 0 0 0 127 0" result="hardAlpha"/>
<feOffset/>
<feGaussianBlur stdDeviation="3.22422"/>
<feComposite in2="hardAlpha" operator="out"/>
<feColorMatrix type="matrix" values="0 0 0 0 0 0 0 0 0 0 0 0 0 0 0 0 0 0 0.1 0"/>
<feBlend mode="normal" in2="BackgroundImageFix" result="effect1_dropShadow_106_36"/>
<feBlend mode="normal" in="SourceGraphic" in2="effect1_dropShadow_106_36" result="shape"/>
</filter>
</defs>
</svg>
